<svg width="363" height="152" viewBox="0 0 363 152" fill="none" xmlns="http://www.w3.org/2000/svg">
<rect width="135" height="126" fill="#99D3C2"/>
<rect x="92" y="63" width="87" height="89" fill="#BDC5C3"/>
<path d="M177.55 59.2H171.7C169.733 59.2 168.283 58.65 167.35 57.55C166.45 56.45 166 55.0333 166 53.3V51.45C164.233 51.2167 162.7 50.65 161.4 49.75C160.133 48.8167 159.083 47.6 158.25 46.1C157.417 44.5667 156.8 42.75 156.4 40.65C156 38.5167 155.8 36.15 155.8 33.55C155.8 30.7167 156.033 28.1833 156.5 25.95C156.967 23.6833 157.7 21.7833 158.7 20.25C159.7 18.7167 160.967 17.55 162.5 16.75C164.033 15.9167 165.867 15.5 168 15.5C170.133 15.5 171.967 15.9167 173.5 16.75C175.033 17.55 176.3 18.7167 177.3 20.25C178.3 21.7833 179.033 23.6833 179.5 25.95C179.967 28.1833 180.2 30.7167 180.2 33.55C180.2 38.7833 179.383 42.9667 177.75 46.1C176.117 49.2 173.533 50.9833 170 51.45V55.8H177.55V59.2ZM168 47.95C169.4 47.95 170.583 47.6833 171.55 47.15C172.517 46.5833 173.317 45.8 173.95 44.8C174.583 43.8 175.033 42.6 175.3 41.2C175.6 39.7667 175.75 38.1667 175.75 36.4V30.7C175.75 28.9667 175.6 27.3833 175.3 25.95C175.033 24.5167 174.583 23.3 173.95 22.3C173.317 21.3 172.517 20.5333 171.55 20C170.583 19.4333 169.4 19.15 168 19.15C166.6 19.15 165.417 19.4333 164.45 20C163.483 20.5333 162.683 21.3 162.05 22.3C161.417 23.3 160.95 24.5167 160.65 25.95C160.383 27.3833 160.25 28.9667 160.25 30.7V36.4C160.25 38.1667 160.383 39.7667 160.65 41.2C160.95 42.6 161.417 43.8 162.05 44.8C162.683 45.8 163.483 46.5833 164.45 47.15C165.417 47.6833 166.6 47.95 168 47.95ZM187.48 51V16.1H208.98V19.75H191.68V31.5H208.38V35.15H191.68V47.35H208.98V51H187.48ZM225.111 51L214.761 16.1H219.211L224.161 33.55L227.911 46.75H228.161L231.911 33.55L236.861 16.1H241.161L230.811 51H225.111ZM247.441 51V16.1H268.941V19.75H251.641V31.5H268.341V35.15H251.641V47.35H268.941V51H247.441ZM285.822 51V37.3L273.772 16.1H278.572L283.572 25.2L287.822 33.15H288.022L292.372 25.2L297.372 16.1H302.072L290.022 37.3V51H285.822ZM307.402 51V16.1H328.902V19.75H311.602V31.5H328.302V35.15H311.602V47.35H328.902V51H307.402ZM341.583 51H337.383V16.1H350.083C353.316 16.1 355.783 16.9833 357.483 18.75C359.183 20.5167 360.033 22.9833 360.033 26.15C360.033 28.9833 359.299 31.25 357.833 32.95C356.366 34.65 354.233 35.6333 351.433 35.9L360.333 51H355.633L347.133 36.1H341.583V51ZM349.983 32.55C351.749 32.55 353.116 32.1167 354.083 31.25C355.083 30.35 355.583 29.0833 355.583 27.45V24.85C355.583 23.2167 355.083 21.9667 354.083 21.1C353.116 20.2 351.749 19.75 349.983 19.75H341.583V32.55H349.983Z" fill="#45B692" fill-opacity="0.72"/>
</svg>
